<svg xmlns="http://www.w3.org/2000/svg" xmlns:xlink="http://www.w3.org/1999/xlink" width="500" zoomAndPan="magnify" viewBox="0 0 375 374.999991" height="500" preserveAspectRatio="xMidYMid meet" version="1.0"><defs><clipPath id="3f07cf5ec5"><path d="M 41 273.015625 L 375 273.015625 L 375 284.484375 L 41 284.484375 Z M 41 273.015625 " clip-rule="nonzero"/></clipPath><clipPath id="416e081cac"><path d="M 0 90.234375 L 373 90.234375 L 373 282 L 0 282 Z M 0 90.234375 " clip-rule="nonzero"/></clipPath></defs><path fill="#ff914d" d="M 1.820312 147.300781 C 1.820312 147.300781 2.667969 155.375 6.195312 157.410156 C 9.726562 159.429688 9.726562 161.875 9.726562 161.875 L 31.320312 154.160156 L 32.90625 255.539062 L 41.597656 260.957031 L 293.058594 255.242188 L 370.496094 252.191406 L 367.796875 205.882812 L 320.839844 173.789062 L 307.296875 122.769531 L 221.300781 93.097656 L 136.210938 117.464844 L 104.40625 115.410156 L 1.820312 147.300781 " fill-opacity="1" fill-rule="evenodd"/><path fill="#cd692c" d="M 222.976562 103.476562 L 226.269531 119.441406 C 226.269531 119.441406 284.761719 134.023438 288.914062 131.109375 C 293.058594 128.1875 288.914062 125.882812 288.914062 125.882812 L 222.976562 103.476562 " fill-opacity="1" fill-rule="evenodd"/><path fill="#cd692c" d="M 246.300781 167.191406 L 293.136719 175.789062 L 335.816406 203.113281 L 343.328125 253.777344 L 291.136719 253.933594 L 288.757812 200.957031 L 246.300781 167.191406 " fill-opacity="1" fill-rule="evenodd"/><path fill="#fefefe" d="M 297.085938 242.007812 L 296.328125 208.953125 L 312.589844 209.769531 L 313.359375 241.917969 Z M 358.382812 242.363281 L 357.703125 212.125 L 369.089844 212.996094 L 370.140625 242.296875 L 358.382812 242.363281 " fill-opacity="1" fill-rule="evenodd"/><g clip-path="url(#3f07cf5ec5)"><path fill="#141515" d="M 47.878906 276.746094 C 69.433594 276.464844 166.527344 275.203125 230.660156 273.753906 C 303.152344 272.125 370.476562 275.015625 373.46875 276.332031 C 376.460938 277.640625 375.621094 281.347656 366.558594 281.46875 C 262.070312 282.945312 154.378906 288.238281 48.027344 281.113281 C 39.441406 280.53125 38.097656 276.867188 47.878906 276.746094 " fill-opacity="1" fill-rule="evenodd"/></g><path fill="#fefefe" d="M 141.613281 119.273438 L 144.375 120.804688 L 213.316406 101.765625 L 227.898438 163.335938 C 227.898438 163.335938 282.882812 201.261719 284.851562 201.101562 C 286.828125 200.9375 286.4375 199.105469 286.4375 199.105469 L 234.835938 160.234375 L 219.636719 92.527344 L 141.613281 119.273438 " fill-opacity="1" fill-rule="evenodd"/><path fill="#fefefe" d="M 3.71875 151.8125 L 104.363281 121.699219 L 104.890625 116.804688 L 1.820312 147.300781 L 3.71875 151.8125 " fill-opacity="1" fill-rule="evenodd"/><g clip-path="url(#416e081cac)"><path fill="#141515" d="M 27.269531 158.847656 L 30.003906 161.609375 L 30.003906 158.101562 Z M 34.355469 156.90625 L 34.355469 165.972656 L 41.429688 173.078125 L 41.429688 155.050781 Z M 122.351562 125.125 L 160.242188 126.890625 L 160.652344 160.589844 Z M 319.535156 175.164062 L 290.636719 170.0625 C 290.636719 170.0625 284.046875 141.886719 283.273438 141.039062 C 282.605469 140.300781 285.964844 163.492188 286.839844 169.402344 L 239.589844 161.070312 L 289.058594 198.035156 L 360.347656 203.492188 L 320.527344 176.773438 C 320.082031 176.46875 319.777344 176.035156 319.644531 175.554688 Z M 227.6875 118.492188 L 309.816406 140.023438 L 309.21875 137.820312 C 307.6875 137.027344 305.320312 135.789062 304.003906 135.054688 C 301.921875 133.902344 234.753906 107.269531 234.296875 106.5 C 233.886719 105.808594 294.640625 123.976562 306.355469 127.492188 L 305.519531 124.457031 L 222.605469 95.859375 Z M 298.105469 210.785156 L 298.785156 240.265625 L 311.582031 240.199219 L 310.890625 211.421875 Z M 295.359375 242.039062 L 294.597656 208.988281 C 294.574219 208.027344 295.335938 207.246094 296.292969 207.222656 C 296.339844 207.222656 296.375 207.222656 296.417969 207.222656 L 312.664062 208.039062 C 313.605469 208.082031 314.339844 208.867188 314.316406 209.792969 L 315.101562 241.886719 C 315.125 242.847656 314.363281 243.636719 313.402344 243.660156 L 297.097656 243.738281 C 296.152344 243.738281 295.371094 242.980469 295.359375 242.039062 Z M 367.886719 240.578125 L 366.625 214.550781 L 359.476562 214 L 360.082031 240.621094 Z M 368.386719 251.019531 L 368.050781 244.050781 L 358.394531 244.097656 C 357.441406 244.097656 356.675781 243.335938 356.652344 242.398438 L 355.96875 212.160156 C 355.949219 211.199219 356.707031 210.417969 357.667969 210.394531 C 357.722656 210.394531 357.777344 210.394531 357.835938 210.394531 L 366.457031 211.050781 L 366.335938 208.316406 L 350.488281 207.101562 L 351.046875 237.988281 C 351.191406 240.925781 350.175781 243.984375 346.558594 243.671875 L 329.4375 243.671875 C 327.761719 243.671875 325.1875 243.636719 323.621094 242.511719 C 322.210938 241.492188 321.734375 239.484375 321.699219 237.828125 L 320.984375 204.835938 L 290.722656 202.523438 C 290.746094 209.144531 290.824219 239.003906 290.414062 239.070312 C 289.996094 239.136719 287.429688 208.25 286.894531 201.839844 L 233.539062 161.972656 C 233.140625 161.671875 232.832031 161.238281 232.722656 160.714844 L 218.039062 95.3125 L 141.816406 119.574219 C 141.539062 119.6875 141.234375 119.742188 140.914062 119.722656 L 106.597656 117.710938 C 106.496094 119.957031 106.113281 122.1875 105.523438 124.34375 L 114.300781 124.753906 L 160.746094 167.75 L 161.335938 215.699219 L 41.347656 222.6875 L 41.429688 219.226562 L 41.429688 180.457031 L 34.355469 173.355469 L 34.355469 255.027344 L 41.640625 259.292969 L 69.445312 258.3125 C 69.355469 257.285156 69.296875 256.242188 69.296875 255.183594 C 69.296875 240.859375 78.265625 229.234375 89.324219 229.234375 C 100.375 229.234375 109.34375 240.859375 109.34375 255.183594 C 109.34375 255.875 109.320312 256.558594 109.285156 257.238281 L 109.867188 257.183594 L 217.527344 254.617188 C 217.089844 252.269531 216.855469 249.8125 216.855469 247.289062 C 216.855469 229.859375 227.753906 215.730469 241.199219 215.730469 C 254.644531 215.730469 265.542969 229.859375 265.542969 247.289062 C 265.542969 249.195312 265.410156 251.0625 265.152344 252.882812 C 299.199219 252.882812 333.859375 251.855469 368.386719 251.019531 Z M 172.960938 241.449219 L 170.816406 135.511719 L 216.878906 122.308594 L 225.242188 159.238281 C 225.242188 159.238281 225.464844 208.753906 224.472656 208.363281 C 223.480469 207.980469 221.714844 160.234375 221.714844 160.234375 L 225.242188 159.238281 L 177.863281 172.4375 L 177.292969 180.433594 L 187.398438 177.921875 C 188.792969 177.574219 190.199219 178.4375 190.546875 179.832031 C 190.894531 181.226562 190.035156 182.632812 188.636719 182.980469 L 176.902344 185.894531 Z M 353.132812 261.839844 C 349.851562 271.933594 343.253906 278.835938 335.648438 278.835938 C 329.851562 278.835938 325.027344 278.835938 319.242188 278.835938 C 312.363281 278.835938 306.300781 273.183594 302.78125 264.632812 C 286 265.488281 271.371094 266.25 271.371094 266.25 L 270.78125 266.261719 C 266.335938 273.898438 259.277344 278.835938 251.328125 278.835938 C 244.179688 278.835938 248.359375 278.835938 241.199219 278.835938 C 233.550781 278.835938 226.726562 274.253906 222.257812 267.113281 C 208.359375 267.34375 192.535156 267.601562 176.230469 267.871094 C 172.804688 275.785156 166.273438 281.132812 158.765625 281.132812 C 152.882812 281.132812 156.3125 281.132812 150.425781 281.132812 C 143.136719 281.132812 136.757812 276.074219 133.253906 268.527344 C 126.917969 268.617188 120.710938 268.707031 114.714844 268.785156 C 111.183594 276.199219 104.863281 281.132812 97.664062 281.132812 C 91.777344 281.132812 95.203125 281.132812 89.324219 281.132812 C 82.277344 281.132812 76.078125 276.410156 72.503906 269.277344 C 58.097656 269.390625 48.820312 269.375 48.148438 269.164062 C 46.015625 268.484375 41.125 264.742188 37.820312 262.085938 L 31.257812 258.230469 C 30.519531 257.886719 30.003906 257.136719 30.003906 256.269531 L 30.003906 168.988281 L 22.230469 161.179688 C 22 160.949219 21.820312 160.667969 21.695312 160.378906 L 10.25 163.527344 C 9.882812 163.640625 9.480469 163.640625 9.101562 163.484375 C 6.441406 162.457031 4.285156 160.277344 2.753906 157.453125 C 1.214844 154.617188 0.289062 151.109375 0.0859375 147.480469 C 0 146.675781 0.5 145.894531 1.292969 145.648438 L 104.273438 113.265625 C 105.246094 112.941406 136.855469 115.132812 140.765625 115.363281 L 218.796875 90.519531 C 219.28125 90.316406 219.8125 90.296875 220.339844 90.476562 L 308.007812 120.714844 L 308.007812 120.722656 C 308.65625 120.949219 309.191406 121.476562 309.394531 122.199219 L 323.609375 173.621094 L 369.492188 204.410156 C 370.152344 204.789062 370.589844 205.503906 370.578125 206.308594 L 372.71875 250.863281 C 372.832031 253.273438 358.058594 260.230469 353.132812 261.839844 Z M 103.136719 117.265625 L 3.660156 148.542969 C 3.949219 151.210938 4.6875 153.734375 5.804688 155.789062 C 6.855469 157.734375 8.230469 159.238281 9.859375 160.03125 C 38.023438 152.304688 66.171875 144.578125 94.367188 136.839844 C 96.925781 134.441406 99.347656 130.898438 101 126.855469 C 102.242188 123.839844 103.035156 120.558594 103.136719 117.265625 " fill-opacity="1" fill-rule="nonzero"/></g><path fill="#fefefe" d="M 152.613281 196.457031 L 156.421875 196.046875 L 156.488281 209.949219 L 144.5625 210.742188 L 152.378906 197.285156 C 152.535156 197.027344 152.601562 196.738281 152.613281 196.457031 Z M 124.742188 199.441406 L 148.59375 196.882812 L 140.375 211.019531 L 117.117188 212.574219 L 124.707031 199.507812 C 124.722656 199.484375 124.730469 199.460938 124.742188 199.441406 Z M 99.636719 202.128906 L 120.464844 199.898438 L 112.9375 212.851562 L 92.628906 214.203125 Z M 77.425781 204.511719 L 95.363281 202.589844 L 88.4375 214.480469 L 70.941406 215.652344 Z M 48.40625 217.164062 L 56.089844 206.796875 L 73.140625 204.96875 L 66.765625 215.933594 Z M 53.398438 194.59375 L 53.398438 164.117188 L 99.382812 177.699219 L 99.382812 198.816406 L 86.71875 199.730469 L 53.398438 194.59375 " fill-opacity="1" fill-rule="evenodd"/><path fill="#ff914d" d="M 68.753906 161.820312 C 67.578125 162.054688 66.429688 161.304688 66.195312 160.125 C 65.960938 158.949219 66.710938 157.808594 67.878906 157.566406 L 122.84375 146.265625 C 124.015625 146.019531 125.152344 146.777344 125.402344 147.949219 C 125.636719 149.121094 124.886719 150.273438 123.703125 150.507812 L 68.753906 161.820312 " fill-opacity="1" fill-rule="nonzero"/><path fill="#ff914d" d="M 86.796875 167.257812 C 85.625 167.503906 84.472656 166.742188 84.238281 165.574219 C 84.003906 164.398438 84.753906 163.25 85.9375 163.015625 L 131.675781 153.601562 C 132.851562 153.355469 134 154.113281 134.234375 155.289062 C 134.476562 156.457031 133.71875 157.609375 132.546875 157.847656 L 86.796875 167.257812 " fill-opacity="1" fill-rule="nonzero"/><path fill="#fefefe" d="M 89.324219 238.289062 C 95.40625 238.289062 100.34375 245.847656 100.34375 255.183594 C 100.34375 264.519531 95.40625 272.078125 89.324219 272.078125 C 83.234375 272.078125 78.3125 264.519531 78.3125 255.183594 C 78.3125 245.847656 83.234375 238.289062 89.324219 238.289062 Z M 241.199219 226.742188 C 248.59375 226.742188 254.585938 235.941406 254.585938 247.289062 C 254.585938 258.632812 248.59375 267.824219 241.199219 267.824219 C 233.804688 267.824219 227.808594 258.632812 227.808594 247.289062 C 227.808594 235.941406 233.804688 226.742188 241.199219 226.742188 " fill-opacity="1" fill-rule="evenodd"/><path fill="#fefefe" d="M 289.023438 150.105469 L 293.179688 166.753906 L 307.453125 169.636719 C 307.453125 169.636719 305.308594 164.988281 298.09375 158.3125 C 290.871094 151.632812 289.023438 150.105469 289.023438 150.105469 Z M 232.300781 123.699219 L 239.671875 157.398438 L 283.734375 165.996094 C 283.734375 165.996094 265.085938 146.421875 252.265625 137.128906 C 239.445312 127.839844 232.300781 123.699219 232.300781 123.699219 " fill-opacity="1" fill-rule="evenodd"/><path fill="#818181" d="M 338.574219 236.996094 C 338.582031 237.71875 338.011719 238.3125 337.289062 238.320312 C 336.574219 238.332031 335.984375 237.753906 335.96875 237.035156 L 335.433594 208.707031 C 335.425781 207.992188 335.992188 207.402344 336.707031 207.390625 C 337.433594 207.378906 338.027344 207.949219 338.039062 208.671875 Z M 330.097656 236.773438 C 330.109375 237.484375 329.527344 238.078125 328.8125 238.089844 C 328.097656 238.097656 327.507812 237.527344 327.496094 236.800781 L 326.960938 208.484375 C 326.949219 207.769531 327.519531 207.179688 328.230469 207.167969 C 328.949219 207.15625 329.539062 207.726562 329.550781 208.441406 Z M 346.101562 236.996094 C 346.113281 237.71875 345.542969 238.3125 344.824219 238.320312 C 344.101562 238.332031 343.507812 237.753906 343.496094 237.035156 L 342.960938 208.707031 C 342.949219 207.992188 343.519531 207.402344 344.246094 207.390625 C 344.960938 207.378906 345.550781 207.949219 345.5625 208.671875 L 346.101562 236.996094 " fill-opacity="1" fill-rule="nonzero"/></svg>